<?xml version="1.0" standalone="no"?>
<!DOCTYPE svg PUBLIC "-//W3C//DTD SVG 20010904//EN"
 "http://www.w3.org/TR/2001/REC-SVG-20010904/DTD/svg10.dtd">
<svg version="1.0" xmlns="http://www.w3.org/2000/svg"
 width="1500.000000pt" height="1500.000000pt" viewBox="0 0 1500.000000 1500.000000"
 preserveAspectRatio="xMidYMid meet">
<metadata>
Created by potrace 1.14, written by Peter Selinger 2001-2017
</metadata>
<g transform="translate(0.000000,1500.000000) scale(0.100000,-0.100000)"
fill="#000000" stroke="none">
<path d="M4930 11995 l-2585 -1494 -3 -3996 c-1 -2198 2 -3995 6 -3993 5 1
394 226 865 498 l857 495 0 1000 0 1000 863 498 862 498 3 -1001 2 -1001 28
19 c15 10 404 236 865 501 l837 483 0 3994 c0 2197 -3 3994 -7 3993 -5 0
-1171 -673 -2593 -1494z m870 -2497 l0 -1003 -831 -480 c-458 -264 -847 -488
-865 -498 l-34 -17 0 1002 0 1003 862 498 c474 273 863 497 865 497 2 0 3
-451 3 -1002z"/>
<path d="M10133 8997 c-469 -271 -853 -494 -853 -497 0 -3 384 -226 853 -497
l852 -492 3 494 c1 272 1 718 0 990 l-3 494 -852 -492z"/>
<path d="M10137 5000 c-467 -270 -853 -490 -858 -490 -5 0 -9 -386 -9 -996 l0
-996 43 25 c23 13 407 235 852 492 446 256 813 470 818 474 4 4 6 451 5 994
l-3 986 -848 -489z"/>
</g>
</svg>
